solid OpenSCAD_Model
  facet normal 1 0 0
    outer loop
      vertex 2 13 35
      vertex 2 4.5 2
      vertex 2 13 2
    endloop
  endfacet
  facet normal 1 -0 0
    outer loop
      vertex 2 2 35
      vertex 2 4.5 2
      vertex 2 13 35
    endloop
  endfacet
  facet normal 1 0 0
    outer loop
      vertex 2 2 0
      vertex 2 4.5 2
      vertex 2 2 35
    endloop
  endfacet
  facet normal 1 0 0
    outer loop
      vertex 2 4.5 2
      vertex 2 2 0
      vertex 2 4.5 0
    endloop
  endfacet
  facet normal -1 0 0
    outer loop
      vertex 18 4.5 0
      vertex 18 2 0
      vertex 18 4.5 2
    endloop
  endfacet
  facet normal -1 0 0
    outer loop
      vertex 18 4.5 2
      vertex 18 13 35
      vertex 18 13 2
    endloop
  endfacet
  facet normal -1 0 0
    outer loop
      vertex 18 2 35
      vertex 18 4.5 2
      vertex 18 2 0
    endloop
  endfacet
  facet normal -1 0 0
    outer loop
      vertex 18 4.5 2
      vertex 18 2 35
      vertex 18 13 35
    endloop
  endfacet
  facet normal 0 -1 0
    outer loop
      vertex 2 4.5 0
      vertex 18 4.5 2
      vertex 2 4.5 2
    endloop
  endfacet
  facet normal 0 -1 -0
    outer loop
      vertex 18 4.5 2
      vertex 2 4.5 0
      vertex 18 4.5 0
    endloop
  endfacet
  facet normal 0 1 -0
    outer loop
      vertex 18 2 0
      vertex 2 2 35
      vertex 18 2 35
    endloop
  endfacet
  facet normal 0 1 0
    outer loop
      vertex 2 2 35
      vertex 18 2 0
      vertex 2 2 0
    endloop
  endfacet
  facet normal 0 -1 0
    outer loop
      vertex 2 13 2
      vertex 18 13 35
      vertex 2 13 35
    endloop
  endfacet
  facet normal 0 -1 -0
    outer loop
      vertex 18 13 35
      vertex 2 13 2
      vertex 18 13 2
    endloop
  endfacet
  facet normal -0 0 1
    outer loop
      vertex 2 13 2
      vertex 18 4.5 2
      vertex 18 13 2
    endloop
  endfacet
  facet normal 0 0 1
    outer loop
      vertex 18 4.5 2
      vertex 2 13 2
      vertex 2 4.5 2
    endloop
  endfacet
  facet normal -1 0 0
    outer loop
      vertex 0 0 0
      vertex 0 15 35
      vertex 0 15 0
    endloop
  endfacet
  facet normal -1 -0 0
    outer loop
      vertex 0 15 35
      vertex 0 0 0
      vertex 0 0 35
    endloop
  endfacet
  facet normal 0 0 1
    outer loop
      vertex 20 15 35
      vertex 18 13 35
      vertex 20 0 35
    endloop
  endfacet
  facet normal 0 0 1
    outer loop
      vertex 20 15 35
      vertex 2 13 35
      vertex 18 13 35
    endloop
  endfacet
  facet normal 0 0 1
    outer loop
      vertex 2 13 35
      vertex 0 15 35
      vertex 2 2 35
    endloop
  endfacet
  facet normal -0 0 1
    outer loop
      vertex 0 15 35
      vertex 2 13 35
      vertex 20 15 35
    endloop
  endfacet
  facet normal -0 0 1
    outer loop
      vertex 18 2 35
      vertex 20 0 35
      vertex 18 13 35
    endloop
  endfacet
  facet normal -0 0 1
    outer loop
      vertex 2 2 35
      vertex 20 0 35
      vertex 18 2 35
    endloop
  endfacet
  facet normal 0 0 1
    outer loop
      vertex 2 2 35
      vertex 0 0 35
      vertex 20 0 35
    endloop
  endfacet
  facet normal 0 0 1
    outer loop
      vertex 0 0 35
      vertex 2 2 35
      vertex 0 15 35
    endloop
  endfacet
  facet normal 1 -0 0
    outer loop
      vertex 20 0 35
      vertex 20 15 0
      vertex 20 15 35
    endloop
  endfacet
  facet normal 1 0 0
    outer loop
      vertex 20 15 0
      vertex 20 0 35
      vertex 20 0 0
    endloop
  endfacet
  facet normal 0 1 -0
    outer loop
      vertex 20 15 0
      vertex 0 15 35
      vertex 20 15 35
    endloop
  endfacet
  facet normal 0 1 0
    outer loop
      vertex 0 15 35
      vertex 20 15 0
      vertex 0 15 0
    endloop
  endfacet
  facet normal 0 0 -1
    outer loop
      vertex 18 4.5 0
      vertex 20 0 0
      vertex 18 2 0
    endloop
  endfacet
  facet normal 0 0 -1
    outer loop
      vertex 20 0 0
      vertex 2 2 0
      vertex 18 2 0
    endloop
  endfacet
  facet normal -0 0 -1
    outer loop
      vertex 2 2 0
      vertex 0 0 0
      vertex 2 4.5 0
    endloop
  endfacet
  facet normal 0 0 -1
    outer loop
      vertex 0 0 0
      vertex 2 2 0
      vertex 20 0 0
    endloop
  endfacet
  facet normal 0 0 -1
    outer loop
      vertex 20 0 0
      vertex 18 4.5 0
      vertex 20 15 0
    endloop
  endfacet
  facet normal 0 0 -1
    outer loop
      vertex 2 4.5 0
      vertex 20 15 0
      vertex 18 4.5 0
    endloop
  endfacet
  facet normal 0 0 -1
    outer loop
      vertex 2 4.5 0
      vertex 0 15 0
      vertex 20 15 0
    endloop
  endfacet
  facet normal 0 0 -1
    outer loop
      vertex 0 15 0
      vertex 2 4.5 0
      vertex 0 0 0
    endloop
  endfacet
  facet normal 0 -1 0
    outer loop
      vertex 0 0 0
      vertex 20 0 35
      vertex 0 0 35
    endloop
  endfacet
  facet normal 0 -1 -0
    outer loop
      vertex 20 0 35
      vertex 0 0 0
      vertex 20 0 0
    endloop
  endfacet
endsolid OpenSCAD_Model
