solid OpenSCAD_Model
  facet normal -1 0 0
    outer loop
      vertex 0 0 0
      vertex 0 60 18
      vertex 0 60 0
    endloop
  endfacet
  facet normal -1 -0 0
    outer loop
      vertex 0 60 18
      vertex 0 0 0
      vertex 0 0 18
    endloop
  endfacet
  facet normal -0 0 1
    outer loop
      vertex 0 60 18
      vertex 1.6 0 18
      vertex 1.6 60 18
    endloop
  endfacet
  facet normal 0 0 1
    outer loop
      vertex 1.6 0 18
      vertex 0 60 18
      vertex 0 0 18
    endloop
  endfacet
  facet normal -0 0 1
    outer loop
      vertex 4.9 60 18
      vertex 6.5 0 18
      vertex 6.5 60 18
    endloop
  endfacet
  facet normal 0 0 1
    outer loop
      vertex 6.5 0 18
      vertex 4.9 60 18
      vertex 4.9 0 18
    endloop
  endfacet
  facet normal 1 -0 0
    outer loop
      vertex 6.5 0 4.9
      vertex 6.5 60 1.6
      vertex 6.5 60 4.9
    endloop
  endfacet
  facet normal 1 0 0
    outer loop
      vertex 6.5 60 1.6
      vertex 6.5 0 4.9
      vertex 6.5 0 1.6
    endloop
  endfacet
  facet normal 1 -0 0
    outer loop
      vertex 6.5 0 18
      vertex 6.5 60 6.5
      vertex 6.5 60 18
    endloop
  endfacet
  facet normal 1 0 0
    outer loop
      vertex 6.5 60 6.5
      vertex 6.5 0 18
      vertex 6.5 0 6.5
    endloop
  endfacet
  facet normal 0 1 -0
    outer loop
      vertex 18.5 60 0
      vertex 6.5 60 1.6
      vertex 18.5 60 1.6
    endloop
  endfacet
  facet normal 0 1 0
    outer loop
      vertex 0 60 0
      vertex 6.5 60 1.6
      vertex 18.5 60 0
    endloop
  endfacet
  facet normal 0 1 0
    outer loop
      vertex 6.5 60 1.6
      vertex 0 60 0
      vertex 4.9 60 1.6
    endloop
  endfacet
  facet normal 0 1 0
    outer loop
      vertex 18.5 60 6.5
      vertex 18.5 60 4.9
      vertex 6.5 60 6.5
    endloop
  endfacet
  facet normal 0 1 -0
    outer loop
      vertex 6.5 60 6.5
      vertex 4.9 60 18
      vertex 6.5 60 18
    endloop
  endfacet
  facet normal 0 1 0
    outer loop
      vertex 6.5 60 4.9
      vertex 6.5 60 6.5
      vertex 18.5 60 4.9
    endloop
  endfacet
  facet normal 0 1 0
    outer loop
      vertex 4.9 60 1.6
      vertex 6.5 60 6.5
      vertex 6.5 60 4.9
    endloop
  endfacet
  facet normal 0 1 0
    outer loop
      vertex 4.9 60 1.6
      vertex 6.5 60 4.9
      vertex 6.5 60 1.6
    endloop
  endfacet
  facet normal 0 1 0
    outer loop
      vertex 6.5 60 6.5
      vertex 4.9 60 1.6
      vertex 4.9 60 18
    endloop
  endfacet
  facet normal 0 1 -0
    outer loop
      vertex 1.6 60 1.6
      vertex 0 60 18
      vertex 1.6 60 18
    endloop
  endfacet
  facet normal 0 1 0
    outer loop
      vertex 1.6 60 1.6
      vertex 0 60 0
      vertex 0 60 18
    endloop
  endfacet
  facet normal 0 1 0
    outer loop
      vertex 4.9 60 1.6
      vertex 0 60 0
      vertex 1.6 60 1.6
    endloop
  endfacet
  facet normal 0 0 -1
    outer loop
      vertex 0 0 0
      vertex 18.5 60 0
      vertex 18.5 0 0
    endloop
  endfacet
  facet normal -0 0 -1
    outer loop
      vertex 18.5 60 0
      vertex 0 0 0
      vertex 0 60 0
    endloop
  endfacet
  facet normal 0 -1 0
    outer loop
      vertex 0 0 18
      vertex 1.6 0 1.6
      vertex 1.6 0 18
    endloop
  endfacet
  facet normal 0 -1 0
    outer loop
      vertex 0 0 0
      vertex 4.9 0 1.6
      vertex 1.6 0 1.6
    endloop
  endfacet
  facet normal 0 -1 -0
    outer loop
      vertex 4.9 0 1.6
      vertex 0 0 0
      vertex 6.5 0 1.6
    endloop
  endfacet
  facet normal 0 -1 0
    outer loop
      vertex 0 0 0
      vertex 1.6 0 1.6
      vertex 0 0 18
    endloop
  endfacet
  facet normal 0 -1 -0
    outer loop
      vertex 6.5 0 1.6
      vertex 0 0 0
      vertex 18.5 0 0
    endloop
  endfacet
  facet normal 0 -1 0
    outer loop
      vertex 6.5 0 1.6
      vertex 18.5 0 0
      vertex 18.5 0 1.6
    endloop
  endfacet
  facet normal 0 -1 0
    outer loop
      vertex 4.9 0 18
      vertex 6.5 0 6.5
      vertex 6.5 0 18
    endloop
  endfacet
  facet normal 0 -1 0
    outer loop
      vertex 6.5 0 6.5
      vertex 6.5 0 4.9
      vertex 18.5 0 6.5
    endloop
  endfacet
  facet normal 0 -1 0
    outer loop
      vertex 4.9 0 1.6
      vertex 6.5 0 6.5
      vertex 4.9 0 18
    endloop
  endfacet
  facet normal 0 -1 -0
    outer loop
      vertex 6.5 0 6.5
      vertex 4.9 0 1.6
      vertex 6.5 0 4.9
    endloop
  endfacet
  facet normal 0 -1 -0
    outer loop
      vertex 6.5 0 4.9
      vertex 4.9 0 1.6
      vertex 6.5 0 1.6
    endloop
  endfacet
  facet normal 0 -1 -0
    outer loop
      vertex 18.5 0 6.5
      vertex 6.5 0 4.9
      vertex 18.5 0 4.9
    endloop
  endfacet
  facet normal 1 -0 0
    outer loop
      vertex 1.6 0 18
      vertex 1.6 60 1.6
      vertex 1.6 60 18
    endloop
  endfacet
  facet normal 1 0 0
    outer loop
      vertex 1.6 60 1.6
      vertex 1.6 0 18
      vertex 1.6 0 1.6
    endloop
  endfacet
  facet normal -1 0 0
    outer loop
      vertex 4.9 0 1.6
      vertex 4.9 60 18
      vertex 4.9 60 1.6
    endloop
  endfacet
  facet normal -1 -0 0
    outer loop
      vertex 4.9 60 18
      vertex 4.9 0 1.6
      vertex 4.9 0 18
    endloop
  endfacet
  facet normal -0 0 1
    outer loop
      vertex 1.6 60 1.6
      vertex 4.9 0 1.6
      vertex 4.9 60 1.6
    endloop
  endfacet
  facet normal 0 0 1
    outer loop
      vertex 4.9 0 1.6
      vertex 1.6 60 1.6
      vertex 1.6 0 1.6
    endloop
  endfacet
  facet normal -0 0 1
    outer loop
      vertex 6.5 60 6.5
      vertex 18.5 0 6.5
      vertex 18.5 60 6.5
    endloop
  endfacet
  facet normal 0 0 1
    outer loop
      vertex 18.5 0 6.5
      vertex 6.5 60 6.5
      vertex 6.5 0 6.5
    endloop
  endfacet
  facet normal 1 -0 0
    outer loop
      vertex 18.5 0 6.5
      vertex 18.5 60 4.9
      vertex 18.5 60 6.5
    endloop
  endfacet
  facet normal 1 0 0
    outer loop
      vertex 18.5 60 4.9
      vertex 18.5 0 6.5
      vertex 18.5 0 4.9
    endloop
  endfacet
  facet normal 1 -0 0
    outer loop
      vertex 18.5 0 1.6
      vertex 18.5 60 0
      vertex 18.5 60 1.6
    endloop
  endfacet
  facet normal 1 0 0
    outer loop
      vertex 18.5 60 0
      vertex 18.5 0 1.6
      vertex 18.5 0 0
    endloop
  endfacet
  facet normal 0 0 -1
    outer loop
      vertex 6.5 0 4.9
      vertex 18.5 60 4.9
      vertex 18.5 0 4.9
    endloop
  endfacet
  facet normal -0 0 -1
    outer loop
      vertex 18.5 60 4.9
      vertex 6.5 0 4.9
      vertex 6.5 60 4.9
    endloop
  endfacet
  facet normal -0 0 1
    outer loop
      vertex 6.5 60 1.6
      vertex 18.5 0 1.6
      vertex 18.5 60 1.6
    endloop
  endfacet
  facet normal 0 0 1
    outer loop
      vertex 18.5 0 1.6
      vertex 6.5 60 1.6
      vertex 6.5 0 1.6
    endloop
  endfacet
endsolid OpenSCAD_Model
