solid OpenSCAD_Model
  facet normal 1 0 0
    outer loop
      vertex 0 30 11.9
      vertex 0 28 11.9
      vertex 0 30 2
    endloop
  endfacet
  facet normal 1 0 0
    outer loop
      vertex 0 35 0
      vertex 0 60 2
      vertex 0 35 2
    endloop
  endfacet
  facet normal 1 0 0
    outer loop
      vertex 0 60 2
      vertex 0 35 0
      vertex 0 60 -9.9
    endloop
  endfacet
  facet normal 1 0 0
    outer loop
      vertex 0 60 -9.9
      vertex 0 35 0
      vertex 0 35 -9.9
    endloop
  endfacet
  facet normal 1 0 0
    outer loop
      vertex 0 33 2
      vertex 0 35 2
      vertex 0 35 11.9
    endloop
  endfacet
  facet normal 1 0 0
    outer loop
      vertex 0 33 2
      vertex 0 35 11.9
      vertex 0 33 11.9
    endloop
  endfacet
  facet normal 1 0 0
    outer loop
      vertex 0 35 2
      vertex 0 33 2
      vertex 0 35 0
    endloop
  endfacet
  facet normal 1 -0 0
    outer loop
      vertex 0 30 2
      vertex 0 35 0
      vertex 0 33 2
    endloop
  endfacet
  facet normal 1 0 0
    outer loop
      vertex 0 28 2
      vertex 0 30 2
      vertex 0 28 11.9
    endloop
  endfacet
  facet normal 1 -0 0
    outer loop
      vertex 0 28 2
      vertex 0 35 0
      vertex 0 30 2
    endloop
  endfacet
  facet normal 1 0 0
    outer loop
      vertex 0 0 0
      vertex 0 28 2
      vertex 0 0 2
    endloop
  endfacet
  facet normal 1 0 0
    outer loop
      vertex 0 28 2
      vertex 0 0 0
      vertex 0 35 0
    endloop
  endfacet
  facet normal -0 0 1
    outer loop
      vertex -17 28 2
      vertex 0 0 2
      vertex 0 28 2
    endloop
  endfacet
  facet normal 0 0 1
    outer loop
      vertex 0 0 2
      vertex -17 28 2
      vertex -17 0 2
    endloop
  endfacet
  facet normal -0 0 1
    outer loop
      vertex -17 60 2
      vertex 0 35 2
      vertex 0 60 2
    endloop
  endfacet
  facet normal 0 0 1
    outer loop
      vertex 0 35 2
      vertex -17 60 2
      vertex -17 35 2
    endloop
  endfacet
  facet normal -1 0 0
    outer loop
      vertex -17 30 0
      vertex -17 28 2
      vertex -17 30 11.9
    endloop
  endfacet
  facet normal -1 0 0
    outer loop
      vertex -17 0 0
      vertex -17 28 2
      vertex -17 30 0
    endloop
  endfacet
  facet normal -1 -0 0
    outer loop
      vertex -17 28 2
      vertex -17 0 0
      vertex -17 0 2
    endloop
  endfacet
  facet normal -1 -0 0
    outer loop
      vertex -17 30 11.9
      vertex -17 28 2
      vertex -17 28 11.9
    endloop
  endfacet
  facet normal -1 0 0
    outer loop
      vertex -17 60 0
      vertex -17 35 2
      vertex -17 60 2
    endloop
  endfacet
  facet normal -1 0 0
    outer loop
      vertex -17 33 0
      vertex -17 35 2
      vertex -17 60 0
    endloop
  endfacet
  facet normal -1 0 0
    outer loop
      vertex -17 33 11.9
      vertex -17 35 2
      vertex -17 33 0
    endloop
  endfacet
  facet normal -1 0 0
    outer loop
      vertex -17 35 2
      vertex -17 33 11.9
      vertex -17 35 11.9
    endloop
  endfacet
  facet normal 0 1 0
    outer loop
      vertex 0 60 2
      vertex -2 60 0
      vertex -17 60 2
    endloop
  endfacet
  facet normal 0 1 -0
    outer loop
      vertex 0 60 -9.9
      vertex -2 60 0
      vertex 0 60 2
    endloop
  endfacet
  facet normal 0 1 0
    outer loop
      vertex -2 60 0
      vertex 0 60 -9.9
      vertex -2 60 -9.9
    endloop
  endfacet
  facet normal 0 1 0
    outer loop
      vertex -17 60 2
      vertex -2 60 0
      vertex -17 60 0
    endloop
  endfacet
  facet normal 0 0 -1
    outer loop
      vertex -5 30 0
      vertex 0 35 0
      vertex 0 0 0
    endloop
  endfacet
  facet normal 0 0 -1
    outer loop
      vertex -5 33 0
      vertex -2 35 0
      vertex -5 30 0
    endloop
  endfacet
  facet normal -0 0 -1
    outer loop
      vertex 0 35 0
      vertex -5 30 0
      vertex -2 35 0
    endloop
  endfacet
  facet normal 0 0 -1
    outer loop
      vertex -17 0 0
      vertex -5 30 0
      vertex 0 0 0
    endloop
  endfacet
  facet normal -0 0 -1
    outer loop
      vertex -5 30 0
      vertex -17 0 0
      vertex -17 30 0
    endloop
  endfacet
  facet normal 0 0 -1
    outer loop
      vertex -17 33 0
      vertex -2 35 0
      vertex -5 33 0
    endloop
  endfacet
  facet normal -0 0 -1
    outer loop
      vertex -2 35 0
      vertex -17 33 0
      vertex -17 60 0
    endloop
  endfacet
  facet normal 0 0 -1
    outer loop
      vertex -2 35 0
      vertex -17 60 0
      vertex -2 60 0
    endloop
  endfacet
  facet normal 0 -1 0
    outer loop
      vertex -17 0 0
      vertex 0 0 2
      vertex -17 0 2
    endloop
  endfacet
  facet normal 0 -1 -0
    outer loop
      vertex 0 0 2
      vertex -17 0 0
      vertex 0 0 0
    endloop
  endfacet
  facet normal -1 0 0
    outer loop
      vertex -2 35 -9.9
      vertex -2 60 0
      vertex -2 60 -9.9
    endloop
  endfacet
  facet normal -1 -0 0
    outer loop
      vertex -2 60 0
      vertex -2 35 -9.9
      vertex -2 35 0
    endloop
  endfacet
  facet normal 0 0 -1
    outer loop
      vertex -2 35 -9.9
      vertex 0 60 -9.9
      vertex 0 35 -9.9
    endloop
  endfacet
  facet normal -0 0 -1
    outer loop
      vertex 0 60 -9.9
      vertex -2 35 -9.9
      vertex -2 60 -9.9
    endloop
  endfacet
  facet normal 0 -1 0
    outer loop
      vertex -2 35 -9.9
      vertex 0 35 0
      vertex -2 35 0
    endloop
  endfacet
  facet normal 0 -1 -0
    outer loop
      vertex 0 35 0
      vertex -2 35 -9.9
      vertex 0 35 -9.9
    endloop
  endfacet
  facet normal -0 0 1
    outer loop
      vertex -17 30 11.9
      vertex 0 28 11.9
      vertex 0 30 11.9
    endloop
  endfacet
  facet normal 0 0 1
    outer loop
      vertex 0 28 11.9
      vertex -17 30 11.9
      vertex -17 28 11.9
    endloop
  endfacet
  facet normal -0 0 1
    outer loop
      vertex -17 35 11.9
      vertex 0 33 11.9
      vertex 0 35 11.9
    endloop
  endfacet
  facet normal 0 0 1
    outer loop
      vertex 0 33 11.9
      vertex -17 35 11.9
      vertex -17 33 11.9
    endloop
  endfacet
  facet normal 0 1 -0
    outer loop
      vertex 0 35 2
      vertex -17 35 11.9
      vertex 0 35 11.9
    endloop
  endfacet
  facet normal 0 1 0
    outer loop
      vertex -17 35 11.9
      vertex 0 35 2
      vertex -17 35 2
    endloop
  endfacet
  facet normal 0 -1 0
    outer loop
      vertex -17 28 2
      vertex 0 28 11.9
      vertex -17 28 11.9
    endloop
  endfacet
  facet normal 0 -1 -0
    outer loop
      vertex 0 28 11.9
      vertex -17 28 2
      vertex 0 28 2
    endloop
  endfacet
  facet normal -0 0 1
    outer loop
      vertex -5 33 2
      vertex 0 30 2
      vertex 0 33 2
    endloop
  endfacet
  facet normal 0 0 1
    outer loop
      vertex 0 30 2
      vertex -5 33 2
      vertex -5 30 2
    endloop
  endfacet
  facet normal 0 1 0
    outer loop
      vertex -5 30 2
      vertex 0 30 11.9
      vertex 0 30 2
    endloop
  endfacet
  facet normal 0 1 0
    outer loop
      vertex 0 30 11.9
      vertex -5 30 2
      vertex -17 30 11.9
    endloop
  endfacet
  facet normal 0 1 0
    outer loop
      vertex -17 30 0
      vertex -5 30 2
      vertex -5 30 0
    endloop
  endfacet
  facet normal 0 1 0
    outer loop
      vertex -5 30 2
      vertex -17 30 0
      vertex -17 30 11.9
    endloop
  endfacet
  facet normal 0 -1 0
    outer loop
      vertex -17 33 11.9
      vertex -5 33 2
      vertex 0 33 11.9
    endloop
  endfacet
  facet normal 0 -1 0
    outer loop
      vertex -17 33 0
      vertex -5 33 2
      vertex -17 33 11.9
    endloop
  endfacet
  facet normal 0 -1 -0
    outer loop
      vertex -5 33 2
      vertex -17 33 0
      vertex -5 33 0
    endloop
  endfacet
  facet normal 0 -1 -0
    outer loop
      vertex 0 33 11.9
      vertex -5 33 2
      vertex 0 33 2
    endloop
  endfacet
  facet normal -1 0 0
    outer loop
      vertex -5 30 0
      vertex -5 33 2
      vertex -5 33 0
    endloop
  endfacet
  facet normal -1 -0 0
    outer loop
      vertex -5 33 2
      vertex -5 30 0
      vertex -5 30 2
    endloop
  endfacet
endsolid OpenSCAD_Model
